<svg width="22" height="30" viewBox="40 17 22 30" fill="none" xmlns="http://www.w3.org/2000/svg">
<rect x="0.5" y="0.5" width="520" height="64" rx="32" fill="#1F1F1F"/>
<rect x="0.5" y="0.5" width="520" height="64" rx="32" stroke="#D6CEC2"/>
<path d="M46.544 26.944C47.528 25.264 48.716 24.424 50.108 24.424C50.9 24.424 51.488 24.664 51.872 25.144C52.256 25.6 52.448 26.116 52.448 26.692C52.448 27.148 52.328 27.52 52.088 27.808C51.872 28.096 51.524 28.24 51.044 28.24C50.66 28.24 50.372 28.156 50.18 27.988C50.012 27.796 49.868 27.58 49.748 27.34C49.652 27.1 49.532 26.896 49.388 26.728C49.244 26.536 49.004 26.44 48.668 26.44C48.236 26.44 47.828 26.704 47.444 27.232C47.06 27.736 46.736 28.42 46.472 29.284C46.232 30.148 46.112 31.132 46.112 32.236V40.588C46.112 41.092 46.184 41.452 46.328 41.668C46.496 41.884 46.832 42.016 47.336 42.064L48.308 42.172C48.572 42.22 48.704 42.352 48.704 42.568C48.704 42.856 48.524 43 48.164 43H42.08C41.72 43 41.54 42.868 41.54 42.604C41.54 42.388 41.696 42.244 42.008 42.172L42.44 42.1C42.944 42.004 43.268 41.86 43.412 41.668C43.58 41.452 43.664 41.092 43.664 40.588V28.492C43.664 28.06 43.592 27.772 43.448 27.628C43.328 27.46 43.1 27.352 42.764 27.304L42.008 27.196C41.696 27.172 41.54 27.04 41.54 26.8C41.54 26.608 41.732 26.476 42.116 26.404C42.86 26.284 43.424 26.092 43.808 25.828C44.216 25.564 44.636 25.24 45.068 24.856C45.284 24.64 45.464 24.532 45.608 24.532C45.824 24.532 45.932 24.676 45.932 24.964V26.908C45.932 27.076 46.004 27.184 46.148 27.232C46.292 27.256 46.424 27.16 46.544 26.944ZM57.7529 43.324C56.9129 43.324 56.2169 43.036 55.6649 42.46C55.1369 41.86 54.8729 40.888 54.8729 39.544V26.08C54.8729 25.792 54.7289 25.648 54.4409 25.648H53.3969C53.0129 25.648 52.8209 25.504 52.8209 25.216C52.8209 25.024 52.9289 24.856 53.1449 24.712C53.9369 24.16 54.5729 23.572 55.0529 22.948C55.5329 22.3 55.9529 21.424 56.3129 20.32C56.4809 19.816 56.6849 19.564 56.9249 19.564C57.1889 19.564 57.3209 19.756 57.3209 20.14V24.136C57.3209 24.472 57.4889 24.64 57.8249 24.64H60.1649C60.5489 24.64 60.7409 24.808 60.7409 25.144C60.7409 25.48 60.5489 25.648 60.1649 25.648H57.8249C57.4889 25.648 57.3209 25.816 57.3209 26.152V39.58C57.3209 40.108 57.4049 40.528 57.5729 40.84C57.7409 41.128 58.0529 41.272 58.5089 41.272C59.0129 41.272 59.4209 41.02 59.7329 40.516C60.0689 40.012 60.2849 39.196 60.3809 38.068C60.4289 37.732 60.5849 37.564 60.8489 37.564C61.1369 37.564 61.2809 37.744 61.2809 38.104C61.2089 39.952 60.8249 41.284 60.1289 42.1C59.4569 42.916 58.6649 43.324 57.7529 43.324Z" fill="#FAFAFA"/>
<path d="M125.86 39.5C125.807 39.2733 125.767 39.0133 125.74 38.72C125.727 38.4267 125.72 38.0533 125.72 37.6H125.62V32.72C125.62 31.9467 125.44 31.38 125.08 31.02C124.733 30.6467 124.167 30.46 123.38 30.46C122.607 30.46 121.987 30.62 121.52 30.94C121.067 31.2467 120.813 31.6867 120.76 32.26H119.22C119.287 31.2733 119.7 30.5 120.46 29.94C121.22 29.38 122.213 29.1 123.44 29.1C124.707 29.1 125.647 29.4 126.26 30C126.873 30.6 127.18 31.5 127.18 32.7V37.6C127.18 37.8933 127.2 38.2 127.24 38.52C127.28 38.8267 127.333 39.1533 127.4 39.5H125.86ZM122.36 39.7C121.307 39.7 120.467 39.4467 119.84 38.94C119.227 38.42 118.92 37.7133 118.92 36.82C118.92 35.9267 119.227 35.2333 119.84 34.74C120.453 34.2467 121.347 33.9 122.52 33.7L126.08 33.1V34.42L122.76 34.94C122.013 35.06 121.447 35.26 121.06 35.54C120.673 35.82 120.48 36.2267 120.48 36.76C120.48 37.28 120.653 37.6733 121 37.94C121.36 38.2067 121.887 38.34 122.58 38.34C123.473 38.34 124.2 38.14 124.76 37.74C125.333 37.3267 125.62 36.7933 125.62 36.14L125.88 37.56C125.667 38.24 125.247 38.7667 124.62 39.14C124.007 39.5133 123.253 39.7 122.36 39.7ZM135.304 39.68C134.344 39.68 133.537 39.4467 132.884 38.98C132.231 38.5133 131.784 37.8533 131.544 37L131.764 36.96V39.5H130.264V25.1H131.864V31.68L131.644 31.62C131.897 30.8333 132.357 30.22 133.024 29.78C133.704 29.3267 134.511 29.1 135.444 29.1C136.351 29.1 137.137 29.32 137.804 29.76C138.484 30.2 139.011 30.8133 139.384 31.6C139.757 32.3867 139.944 33.3067 139.944 34.36C139.944 35.4267 139.751 36.36 139.364 37.16C138.977 37.96 138.437 38.58 137.744 39.02C137.051 39.46 136.237 39.68 135.304 39.68ZM135.064 38.28C136.077 38.28 136.871 37.9333 137.444 37.24C138.017 36.5333 138.304 35.5733 138.304 34.36C138.304 33.16 138.017 32.22 137.444 31.54C136.871 30.8467 136.077 30.5 135.064 30.5C134.051 30.5 133.251 30.8533 132.664 31.56C132.077 32.2533 131.784 33.2067 131.784 34.42C131.784 35.6067 132.077 36.5467 132.664 37.24C133.251 37.9333 134.051 38.28 135.064 38.28ZM146.633 39.7C145.633 39.7 144.753 39.4667 143.993 39C143.233 38.5333 142.64 37.9 142.213 37.1C141.8 36.2867 141.593 35.3733 141.593 34.36C141.593 33.3333 141.806 32.4267 142.233 31.64C142.66 30.8533 143.246 30.2333 143.993 29.78C144.753 29.3267 145.633 29.1 146.633 29.1C147.646 29.1 148.526 29.3267 149.273 29.78C150.033 30.2333 150.62 30.8533 151.033 31.64C151.46 32.4267 151.673 33.3333 151.673 34.36C151.673 35.3733 151.46 36.2867 151.033 37.1C150.62 37.9 150.033 38.5333 149.273 39C148.526 39.4667 147.646 39.7 146.633 39.7ZM146.633 38.34C147.326 38.34 147.926 38.1733 148.433 37.84C148.94 37.4933 149.333 37.02 149.613 36.42C149.893 35.82 150.033 35.1267 150.033 34.34C150.033 33.1667 149.72 32.2267 149.093 31.52C148.48 30.8133 147.66 30.46 146.633 30.46C145.62 30.46 144.8 30.8133 144.173 31.52C143.546 32.2267 143.233 33.1667 143.233 34.34C143.233 35.1267 143.373 35.82 143.653 36.42C143.933 37.02 144.326 37.4933 144.833 37.84C145.353 38.1733 145.953 38.34 146.633 38.34ZM157.393 39.7C156.726 39.7 156.133 39.5667 155.613 39.3C155.093 39.02 154.686 38.6333 154.393 38.14C154.099 37.6333 153.953 37.0533 153.953 36.4V29.3H155.553V35.98C155.553 36.7533 155.739 37.3333 156.113 37.72C156.499 38.1067 157.046 38.3 157.753 38.3C158.393 38.3 158.959 38.1533 159.453 37.86C159.946 37.5667 160.333 37.16 160.613 36.64C160.906 36.1067 161.053 35.5 161.053 34.82L161.313 37.24C160.979 38 160.459 38.6 159.753 39.04C159.046 39.48 158.259 39.7 157.393 39.7ZM161.153 39.5V37.1H161.053V29.3H162.653V39.5H161.153ZM169.871 39.68C168.738 39.68 167.911 39.4267 167.391 38.92C166.885 38.4 166.631 37.6533 166.631 36.68V26.92L168.231 26.32V36.66C168.231 37.2333 168.378 37.6533 168.671 37.92C168.965 38.1867 169.445 38.32 170.111 38.32C170.378 38.32 170.605 38.3067 170.791 38.28C170.991 38.24 171.151 38.1933 171.271 38.14V39.5C171.138 39.5533 170.945 39.5933 170.691 39.62C170.451 39.66 170.178 39.68 169.871 39.68ZM164.531 30.66V29.3H171.271V30.66H164.531ZM177.334 39.5V29.3H178.834V31.7H178.934V39.5H177.334ZM184.214 39.5V32.74C184.214 31.9667 184.041 31.4 183.694 31.04C183.348 30.68 182.848 30.5 182.194 30.5C181.581 30.5 181.028 30.6467 180.534 30.94C180.041 31.2333 179.648 31.64 179.354 32.16C179.074 32.68 178.934 33.2867 178.934 33.98L178.674 31.56C179.021 30.8 179.541 30.2 180.234 29.76C180.928 29.32 181.681 29.1 182.494 29.1C183.481 29.1 184.281 29.3933 184.894 29.98C185.508 30.5533 185.814 31.3333 185.814 32.32V39.5H184.214ZM191.094 39.5V32.74C191.094 31.9667 190.921 31.4 190.574 31.04C190.228 30.68 189.728 30.5 189.074 30.5C188.461 30.5 187.908 30.6467 187.414 30.94C186.921 31.2333 186.528 31.64 186.234 32.16C185.954 32.68 185.814 33.2867 185.814 33.98L185.414 31.56C185.761 30.8 186.294 30.2 187.014 29.76C187.734 29.32 188.508 29.1 189.334 29.1C190.321 29.1 191.128 29.3933 191.754 29.98C192.381 30.5533 192.694 31.3333 192.694 32.32V39.5H191.094ZM199.952 39.7C198.979 39.7 198.119 39.4733 197.372 39.02C196.625 38.5533 196.039 37.92 195.612 37.12C195.185 36.32 194.972 35.4 194.972 34.36C194.972 33.32 195.179 32.4067 195.592 31.62C196.019 30.82 196.612 30.2 197.372 29.76C198.132 29.32 199.005 29.1 199.992 29.1C200.939 29.1 201.759 29.3067 202.452 29.72C203.159 30.1333 203.699 30.7133 204.072 31.46C204.459 32.2067 204.652 33.0867 204.652 34.1C204.652 34.2333 204.645 34.36 204.632 34.48C204.632 34.6 204.619 34.7333 204.592 34.88H196.172V33.54H203.612L203.092 34.28C203.092 33.0533 202.819 32.1133 202.272 31.46C201.739 30.7933 200.979 30.46 199.992 30.46C198.979 30.46 198.159 30.8133 197.532 31.52C196.919 32.2133 196.612 33.1533 196.612 34.34C196.612 35.5533 196.919 36.5267 197.532 37.26C198.159 37.98 198.992 38.34 200.032 38.34C200.685 38.34 201.259 38.2 201.752 37.92C202.245 37.6267 202.605 37.2133 202.832 36.68H204.352C204.019 37.6133 203.459 38.3533 202.672 38.9C201.899 39.4333 200.992 39.7 199.952 39.7Z" fill="#FAFAFA"/>
<path d="M251.78 39.7C250.807 39.7 249.947 39.4733 249.2 39.02C248.453 38.5533 247.867 37.92 247.44 37.12C247.013 36.32 246.8 35.4 246.8 34.36C246.8 33.32 247.007 32.4067 247.42 31.62C247.847 30.82 248.44 30.2 249.2 29.76C249.96 29.32 250.833 29.1 251.82 29.1C252.767 29.1 253.587 29.3067 254.28 29.72C254.987 30.1333 255.527 30.7133 255.9 31.46C256.287 32.2067 256.48 33.0867 256.48 34.1C256.48 34.2333 256.473 34.36 256.46 34.48C256.46 34.6 256.447 34.7333 256.42 34.88H248V33.54H255.44L254.92 34.28C254.92 33.0533 254.647 32.1133 254.1 31.46C253.567 30.7933 252.807 30.46 251.82 30.46C250.807 30.46 249.987 30.8133 249.36 31.52C248.747 32.2133 248.44 33.1533 248.44 34.34C248.44 35.5533 248.747 36.5267 249.36 37.26C249.987 37.98 250.82 38.34 251.86 38.34C252.513 38.34 253.087 38.2 253.58 37.92C254.073 37.6267 254.433 37.2133 254.66 36.68H256.18C255.847 37.6133 255.287 38.3533 254.5 38.9C253.727 39.4333 252.82 39.7 251.78 39.7ZM265.106 39.5L261.726 34.76L257.686 29.3H259.546L262.666 33.68L266.966 39.5H265.106ZM261.826 33.76L265.026 29.3H266.826L262.666 34.84L261.826 33.76ZM262.506 34.86L259.046 39.5H257.226L261.726 33.72L262.506 34.86ZM274.242 39.68C273.282 39.68 272.475 39.4467 271.822 38.98C271.168 38.5133 270.722 37.8533 270.482 37L270.802 36.96V43.6H269.202V29.3H270.702V31.68L270.482 31.62C270.735 30.8333 271.215 30.22 271.922 29.78C272.628 29.3267 273.448 29.1 274.382 29.1C275.288 29.1 276.075 29.32 276.742 29.76C277.422 30.2 277.948 30.8133 278.322 31.6C278.695 32.3867 278.882 33.3067 278.882 34.36C278.882 35.4267 278.688 36.36 278.302 37.16C277.915 37.96 277.375 38.58 276.682 39.02C275.988 39.46 275.175 39.68 274.242 39.68ZM274.002 38.28C275.015 38.28 275.808 37.9333 276.382 37.24C276.955 36.5333 277.242 35.5733 277.242 34.36C277.242 33.16 276.955 32.22 276.382 31.54C275.808 30.8467 275.015 30.5 274.002 30.5C272.988 30.5 272.188 30.8533 271.602 31.56C271.015 32.2533 270.722 33.2067 270.722 34.42C270.722 35.6067 271.015 36.5467 271.602 37.24C272.188 37.9333 272.988 38.28 274.002 38.28ZM285.51 39.7C284.537 39.7 283.677 39.4733 282.93 39.02C282.184 38.5533 281.597 37.92 281.17 37.12C280.744 36.32 280.53 35.4 280.53 34.36C280.53 33.32 280.737 32.4067 281.15 31.62C281.577 30.82 282.17 30.2 282.93 29.76C283.69 29.32 284.564 29.1 285.55 29.1C286.497 29.1 287.317 29.3067 288.01 29.72C288.717 30.1333 289.257 30.7133 289.63 31.46C290.017 32.2067 290.21 33.0867 290.21 34.1C290.21 34.2333 290.204 34.36 290.19 34.48C290.19 34.6 290.177 34.7333 290.15 34.88H281.73V33.54H289.17L288.65 34.28C288.65 33.0533 288.377 32.1133 287.83 31.46C287.297 30.7933 286.537 30.46 285.55 30.46C284.537 30.46 283.717 30.8133 283.09 31.52C282.477 32.2133 282.17 33.1533 282.17 34.34C282.17 35.5533 282.477 36.5267 283.09 37.26C283.717 37.98 284.55 38.34 285.59 38.34C286.244 38.34 286.817 38.2 287.31 37.92C287.804 37.6267 288.164 37.2133 288.39 36.68H289.91C289.577 37.6133 289.017 38.3533 288.23 38.9C287.457 39.4333 286.55 39.7 285.51 39.7ZM292.62 39.5V29.3H294.12V31.9H294.22V39.5H292.62ZM294.22 34.18L293.96 31.76C294.2 30.8933 294.626 30.2333 295.24 29.78C295.853 29.3267 296.56 29.1 297.36 29.1C297.693 29.1 297.92 29.1267 298.04 29.18V30.72C297.973 30.6933 297.88 30.68 297.76 30.68C297.64 30.6667 297.493 30.66 297.32 30.66C296.306 30.66 295.533 30.9667 295 31.58C294.48 32.18 294.22 33.0467 294.22 34.18ZM299.944 39.5V29.3H301.544V39.5H299.944ZM299.824 26.98V25.1H301.664V26.98H299.824ZM308.889 39.7C307.916 39.7 307.056 39.4733 306.309 39.02C305.563 38.5533 304.976 37.92 304.549 37.12C304.123 36.32 303.909 35.4 303.909 34.36C303.909 33.32 304.116 32.4067 304.529 31.62C304.956 30.82 305.549 30.2 306.309 29.76C307.069 29.32 307.943 29.1 308.929 29.1C309.876 29.1 310.696 29.3067 311.389 29.72C312.096 30.1333 312.636 30.7133 313.009 31.46C313.396 32.2067 313.589 33.0867 313.589 34.1C313.589 34.2333 313.583 34.36 313.569 34.48C313.569 34.6 313.556 34.7333 313.529 34.88H305.109V33.54H312.549L312.029 34.28C312.029 33.0533 311.756 32.1133 311.209 31.46C310.676 30.7933 309.916 30.46 308.929 30.46C307.916 30.46 307.096 30.8133 306.469 31.52C305.856 32.2133 305.549 33.1533 305.549 34.34C305.549 35.5533 305.856 36.5267 306.469 37.26C307.096 37.98 307.929 38.34 308.969 38.34C309.623 38.34 310.196 38.2 310.689 37.92C311.183 37.6267 311.543 37.2133 311.769 36.68H313.289C312.956 37.6133 312.396 38.3533 311.609 38.9C310.836 39.4333 309.929 39.7 308.889 39.7ZM315.998 39.5V29.3H317.498V31.7H317.598V39.5H315.998ZM323.298 39.5V32.82C323.298 32.0467 323.105 31.4667 322.718 31.08C322.332 30.6933 321.758 30.5 320.998 30.5C320.332 30.5 319.738 30.6467 319.218 30.94C318.712 31.2333 318.312 31.64 318.018 32.16C317.738 32.68 317.598 33.2867 317.598 33.98L317.338 31.56C317.685 30.8 318.212 30.2 318.918 29.76C319.638 29.32 320.452 29.1 321.358 29.1C322.425 29.1 323.278 29.4067 323.918 30.02C324.572 30.62 324.898 31.4133 324.898 32.4V39.5H323.298ZM332.011 39.7C331.078 39.7 330.244 39.4733 329.511 39.02C328.791 38.5533 328.218 37.92 327.791 37.12C327.378 36.3067 327.171 35.3867 327.171 34.36C327.171 33.3333 327.378 32.4267 327.791 31.64C328.218 30.8533 328.791 30.2333 329.511 29.78C330.244 29.3267 331.071 29.1 331.991 29.1C332.751 29.1 333.431 29.2467 334.031 29.54C334.644 29.8333 335.144 30.2533 335.531 30.8C335.931 31.3333 336.184 31.96 336.291 32.68H334.811C334.678 32.0267 334.371 31.4933 333.891 31.08C333.411 30.6667 332.791 30.46 332.031 30.46C331.378 30.46 330.811 30.62 330.331 30.94C329.851 31.26 329.478 31.7133 329.211 32.3C328.944 32.8867 328.811 33.5733 328.811 34.36C328.811 35.1467 328.944 35.84 329.211 36.44C329.478 37.04 329.851 37.5067 330.331 37.84C330.824 38.1733 331.398 38.34 332.051 38.34C332.784 38.34 333.398 38.14 333.891 37.74C334.384 37.3267 334.698 36.7933 334.831 36.14H336.311C336.191 36.8467 335.924 37.4733 335.511 38.02C335.111 38.5533 334.611 38.9667 334.011 39.26C333.411 39.5533 332.744 39.7 332.011 39.7ZM342.776 39.7C341.803 39.7 340.943 39.4733 340.196 39.02C339.449 38.5533 338.863 37.92 338.436 37.12C338.009 36.32 337.796 35.4 337.796 34.36C337.796 33.32 338.003 32.4067 338.416 31.62C338.843 30.82 339.436 30.2 340.196 29.76C340.956 29.32 341.829 29.1 342.816 29.1C343.763 29.1 344.583 29.3067 345.276 29.72C345.983 30.1333 346.523 30.7133 346.896 31.46C347.283 32.2067 347.476 33.0867 347.476 34.1C347.476 34.2333 347.469 34.36 347.456 34.48C347.456 34.6 347.443 34.7333 347.416 34.88H338.996V33.54H346.436L345.916 34.28C345.916 33.0533 345.643 32.1133 345.096 31.46C344.563 30.7933 343.803 30.46 342.816 30.46C341.803 30.46 340.983 30.8133 340.356 31.52C339.743 32.2133 339.436 33.1533 339.436 34.34C339.436 35.5533 339.743 36.5267 340.356 37.26C340.983 37.98 341.816 38.34 342.856 38.34C343.509 38.34 344.083 38.2 344.576 37.92C345.069 37.6267 345.429 37.2133 345.656 36.68H347.176C346.843 37.6133 346.283 38.3533 345.496 38.9C344.723 39.4333 343.816 39.7 342.776 39.7Z" fill="#FAFAFA"/>
<path d="M395.64 39.68C394.68 39.68 393.873 39.4467 393.22 38.98C392.567 38.5133 392.12 37.8533 391.88 37L392.2 36.96V43.6H390.6V29.3H392.1V31.68L391.88 31.62C392.133 30.8333 392.613 30.22 393.32 29.78C394.027 29.3267 394.847 29.1 395.78 29.1C396.687 29.1 397.473 29.32 398.14 29.76C398.82 30.2 399.347 30.8133 399.72 31.6C400.093 32.3867 400.28 33.3067 400.28 34.36C400.28 35.4267 400.087 36.36 399.7 37.16C399.313 37.96 398.773 38.58 398.08 39.02C397.387 39.46 396.573 39.68 395.64 39.68ZM395.4 38.28C396.413 38.28 397.207 37.9333 397.78 37.24C398.353 36.5333 398.64 35.5733 398.64 34.36C398.64 33.16 398.353 32.22 397.78 31.54C397.207 30.8467 396.413 30.5 395.4 30.5C394.387 30.5 393.587 30.8533 393 31.56C392.413 32.2533 392.12 33.2067 392.12 34.42C392.12 35.6067 392.413 36.5467 393 37.24C393.587 37.9333 394.387 38.28 395.4 38.28ZM402.729 39.5V29.3H404.229V31.9H404.329V39.5H402.729ZM404.329 34.18L404.069 31.76C404.309 30.8933 404.736 30.2333 405.349 29.78C405.962 29.3267 406.669 29.1 407.469 29.1C407.802 29.1 408.029 29.1267 408.149 29.18V30.72C408.082 30.6933 407.989 30.68 407.869 30.68C407.749 30.6667 407.602 30.66 407.429 30.66C406.416 30.66 405.642 30.9667 405.109 31.58C404.589 32.18 404.329 33.0467 404.329 34.18ZM414.469 39.7C413.469 39.7 412.589 39.4667 411.829 39C411.069 38.5333 410.476 37.9 410.049 37.1C409.636 36.2867 409.429 35.3733 409.429 34.36C409.429 33.3333 409.642 32.4267 410.069 31.64C410.496 30.8533 411.082 30.2333 411.829 29.78C412.589 29.3267 413.469 29.1 414.469 29.1C415.482 29.1 416.362 29.3267 417.109 29.78C417.869 30.2333 418.456 30.8533 418.869 31.64C419.296 32.4267 419.509 33.3333 419.509 34.36C419.509 35.3733 419.296 36.2867 418.869 37.1C418.456 37.9 417.869 38.5333 417.109 39C416.362 39.4667 415.482 39.7 414.469 39.7ZM414.469 38.34C415.162 38.34 415.762 38.1733 416.269 37.84C416.776 37.4933 417.169 37.02 417.449 36.42C417.729 35.82 417.869 35.1267 417.869 34.34C417.869 33.1667 417.556 32.2267 416.929 31.52C416.316 30.8133 415.496 30.46 414.469 30.46C413.456 30.46 412.636 30.8133 412.009 31.52C411.382 32.2267 411.069 33.1667 411.069 34.34C411.069 35.1267 411.209 35.82 411.489 36.42C411.769 37.02 412.162 37.4933 412.669 37.84C413.189 38.1733 413.789 38.34 414.469 38.34ZM420.59 43.8C420.336 43.8 420.13 43.7867 419.97 43.76C419.81 43.7333 419.676 43.7 419.57 43.66V42.4C419.663 42.4267 419.796 42.4533 419.97 42.48C420.13 42.5067 420.303 42.52 420.49 42.52C421.01 42.52 421.37 42.4067 421.57 42.18C421.77 41.9533 421.87 41.6133 421.87 41.16V29.3H423.47V41.24C423.47 42.0667 423.243 42.7 422.79 43.14C422.336 43.58 421.603 43.8 420.59 43.8ZM421.75 26.98V25.1H423.59V26.98H421.75ZM430.815 39.7C429.842 39.7 428.982 39.4733 428.235 39.02C427.488 38.5533 426.902 37.92 426.475 37.12C426.048 36.32 425.835 35.4 425.835 34.36C425.835 33.32 426.042 32.4067 426.455 31.62C426.882 30.82 427.475 30.2 428.235 29.76C428.995 29.32 429.868 29.1 430.855 29.1C431.802 29.1 432.622 29.3067 433.315 29.72C434.022 30.1333 434.562 30.7133 434.935 31.46C435.322 32.2067 435.515 33.0867 435.515 34.1C435.515 34.2333 435.508 34.36 435.495 34.48C435.495 34.6 435.482 34.7333 435.455 34.88H427.035V33.54H434.475L433.955 34.28C433.955 33.0533 433.682 32.1133 433.135 31.46C432.602 30.7933 431.842 30.46 430.855 30.46C429.842 30.46 429.022 30.8133 428.395 31.52C427.782 32.2133 427.475 33.1533 427.475 34.34C427.475 35.5533 427.782 36.5267 428.395 37.26C429.022 37.98 429.855 38.34 430.895 38.34C431.548 38.34 432.122 38.2 432.615 37.92C433.108 37.6267 433.468 37.2133 433.695 36.68H435.215C434.882 37.6133 434.322 38.3533 433.535 38.9C432.762 39.4333 431.855 39.7 430.815 39.7ZM441.964 39.7C441.031 39.7 440.198 39.4733 439.464 39.02C438.744 38.5533 438.171 37.92 437.744 37.12C437.331 36.3067 437.124 35.3867 437.124 34.36C437.124 33.3333 437.331 32.4267 437.744 31.64C438.171 30.8533 438.744 30.2333 439.464 29.78C440.198 29.3267 441.024 29.1 441.944 29.1C442.704 29.1 443.384 29.2467 443.984 29.54C444.598 29.8333 445.098 30.2533 445.484 30.8C445.884 31.3333 446.138 31.96 446.244 32.68H444.764C444.631 32.0267 444.324 31.4933 443.844 31.08C443.364 30.6667 442.744 30.46 441.984 30.46C441.331 30.46 440.764 30.62 440.284 30.94C439.804 31.26 439.431 31.7133 439.164 32.3C438.898 32.8867 438.764 33.5733 438.764 34.36C438.764 35.1467 438.898 35.84 439.164 36.44C439.431 37.04 439.804 37.5067 440.284 37.84C440.778 38.1733 441.351 38.34 442.004 38.34C442.738 38.34 443.351 38.14 443.844 37.74C444.338 37.3267 444.651 36.7933 444.784 36.14H446.264C446.144 36.8467 445.878 37.4733 445.464 38.02C445.064 38.5533 444.564 38.9667 443.964 39.26C443.364 39.5533 442.698 39.7 441.964 39.7ZM452.629 39.68C451.496 39.68 450.669 39.4267 450.149 38.92C449.643 38.4 449.389 37.6533 449.389 36.68V26.92L450.989 26.32V36.66C450.989 37.2333 451.136 37.6533 451.429 37.92C451.723 38.1867 452.203 38.32 452.869 38.32C453.136 38.32 453.363 38.3067 453.549 38.28C453.749 38.24 453.909 38.1933 454.029 38.14V39.5C453.896 39.5533 453.703 39.5933 453.449 39.62C453.209 39.66 452.936 39.68 452.629 39.68ZM447.289 30.66V29.3H454.029V30.66H447.289ZM459.509 39.7C458.256 39.7 457.256 39.4133 456.509 38.84C455.763 38.2533 455.336 37.4267 455.229 36.36H456.769C456.863 37.0133 457.149 37.5133 457.629 37.86C458.109 38.2067 458.749 38.38 459.549 38.38C460.256 38.38 460.809 38.2467 461.209 37.98C461.609 37.7133 461.809 37.3333 461.809 36.84C461.809 36.4933 461.696 36.1933 461.469 35.94C461.243 35.6733 460.789 35.4533 460.109 35.28L458.469 34.86C457.536 34.62 456.836 34.2533 456.369 33.76C455.903 33.2533 455.669 32.6533 455.669 31.96C455.669 31.08 455.996 30.3867 456.649 29.88C457.303 29.36 458.189 29.1 459.309 29.1C460.416 29.1 461.316 29.3667 462.009 29.9C462.703 30.4333 463.096 31.1733 463.189 32.12H461.649C461.556 31.5733 461.303 31.1533 460.889 30.86C460.476 30.5667 459.929 30.42 459.249 30.42C458.596 30.42 458.089 30.5467 457.729 30.8C457.369 31.04 457.189 31.3867 457.189 31.84C457.189 32.1867 457.316 32.4867 457.569 32.74C457.836 32.9933 458.276 33.2067 458.889 33.38L460.489 33.82C461.436 34.0733 462.149 34.46 462.629 34.98C463.109 35.5 463.349 36.1267 463.349 36.86C463.349 37.7533 463.009 38.4533 462.329 38.96C461.649 39.4533 460.709 39.7 459.509 39.7Z" fill="#FAFAFA"/>
</svg>
