<svg width="66" height="60" viewBox="0 0 66 60" fill="none" xmlns="http://www.w3.org/2000/svg">
<path d="M17.5 58.5L0 26.5L46.5 0L65 33.5L17.5 58.5Z" fill="#ED9B94"/>
<path d="M58.0029 16.602C59.0374 17.8771 60.1486 19.6632 60.9713 21.0622C61.6671 22.2038 62.4713 23.3294 62.9014 24.6082C63.5135 26.4283 63.9651 28.3177 64.6063 30.1303C64.8118 30.7108 65.0611 31.0247 65.1543 31.6773C65.5051 34.1497 64.0856 35.7012 61.8453 36.461C61.4895 36.5841 60.5057 37.2114 60.1245 37.4359C58.979 38.1089 57.9597 39.1225 56.8434 39.8506C55.7353 40.5432 54.503 41.1452 53.3651 41.8371L49.2207 44.3565C48.3321 44.9058 47.4099 45.5121 46.5098 46.0297C45.2134 46.7756 43.7634 47.3471 42.4264 48.0061C40.2039 49.1009 37.9795 50.1626 35.7194 51.1787C34.4392 51.7547 33.1292 52.2557 31.8522 52.8424L21.1018 57.7378C20.5574 57.9813 19.9817 58.4786 19.4751 58.6892C18.9994 58.8864 18.0684 59.0881 17.5575 59.1611C16.9909 59.241 15.8213 59.2461 15.3551 58.8839C15.0335 58.634 14.86 58.2484 14.608 57.949C13.7447 56.9246 12.8557 55.8882 12.1856 54.7205C11.1752 52.9591 10.544 51.0107 9.63221 49.1903C8.6867 47.3027 7.48164 45.4608 6.54495 43.5846C5.57019 41.5733 4.86 39.4193 3.93789 37.3858C2.52923 34.2798 0.400475 30.8924 1.15875 27.3398C1.25998 26.8657 1.45077 26.3479 1.46961 25.8744C1.47481 25.7437 1.36527 25.533 1.47728 25.3806C1.88335 24.7272 3.22446 24.0081 3.87091 23.5504C7.84711 20.7679 11.9555 18.1792 16.1817 15.7934C19.7273 13.7863 23.3911 11.8982 26.9473 9.90516C27.7818 9.43751 28.7621 9.05682 29.5699 8.57445C33.1034 6.46466 36.7825 4.52182 40.6085 2.99423C41.4464 2.65959 42.3858 2.08963 43.2376 1.81118C44.5233 1.3906 46.4781 0.637142 47.7942 1.20279C48.53 1.51568 48.8116 2.24198 49.3342 2.78701C52.2843 5.86261 54.4896 9.7856 55.9371 13.8387C55.807 14.3373 56.1952 14.413 55.9282 14.9356L55.8578 14.8808C55.6878 14.7507 55.6104 14.6567 55.4036 14.6491L55.2622 14.4401C55.0472 14.4753 55.0237 14.7503 54.8321 14.8799C52.8672 16.2415 50.6187 17.0876 48.5902 18.2953C45.2451 20.2867 41.6944 21.9058 38.2437 23.7212L15.9559 35.646C14.595 36.3779 13.209 37.1029 11.8693 37.8704C10.1516 38.8541 8.41162 40.1519 6.67491 41.0805C7.77519 43.6803 9.37965 46.0297 10.6968 48.5199C11.5689 50.169 12.1581 51.9487 13.0037 53.6093C13.3077 54.2061 15.8435 57.6921 16.3375 57.8361C16.3676 57.845 16.3982 57.8519 16.4285 57.8602C17.0065 58.0169 17.5756 58.067 18.1714 57.9966C19.5898 57.8297 20.8666 56.9589 22.13 56.3424C23.0653 55.8857 24.02 55.469 24.9465 54.9939C27.1277 53.8757 29.2523 52.6744 31.4643 51.6126L41.8581 46.7261C43.0296 46.1635 44.2512 45.6485 45.3954 45.0371C46.4115 44.4935 47.3934 43.8383 48.3771 43.2395L52.9471 40.4766C53.9588 39.8563 55.0389 39.3483 56.0157 38.7248C57.0718 38.0518 58.0822 37.0611 59.1839 36.4255C59.6266 36.1699 60.2279 35.7335 60.6764 35.5115C61.2897 35.2229 63.2414 34.3451 63.5445 33.6842C64.2695 31.7541 63.15 29.5567 62.7022 27.7853C62.1187 25.4787 61.7591 24.3204 60.507 22.3525C59.43 20.6595 58.3168 18.578 58.0029 16.602ZM3.08358 33.5377C3.84985 32.9763 4.5107 32.6808 5.18233 32.1955C7.4172 30.6253 10.2239 29.2369 12.5813 27.8132C14.5057 26.651 16.7476 25.7197 18.734 24.6552C19.8997 24.0695 21.0526 23.3777 22.2072 22.7605L29.1893 19.0591L39.7719 13.3734C41.0405 12.6768 42.193 11.7766 43.5021 11.108C45.1772 10.2523 46.8174 9.52371 48.5655 8.84535C49.4294 8.51001 50.2115 7.71996 51.284 7.30356C50.9377 6.85969 50.5102 6.17772 50.1487 5.80331C49.1979 4.81847 48.348 3.52601 47.4352 2.55893C47.1251 2.48688 46.7965 2.3892 46.48 2.43455C44.0571 2.83363 38.321 5.43245 35.9823 6.67119C25.4027 12.2748 14.5295 17.4636 4.42736 23.9109C4.02637 24.1673 2.41347 25.1038 2.24622 25.4155C0.815799 28.0811 1.93688 31.0488 3.08358 33.5377Z" fill="#242424"/>
<path d="M53.5078 19.7375C54.0615 19.6916 54.4541 19.9581 54.7015 20.4373C55.3681 21.7291 57.3248 24.7885 56.8155 26.1751C56.3874 26.6188 55.1702 26.9974 54.567 27.3327C53.3498 28.0067 52.1403 28.6822 50.9098 29.333C49.9768 29.7859 49.0387 30.5115 48.1152 30.9501C45.7119 32.0921 43.6017 33.6544 41.3005 34.9369C39.147 36.1376 36.8552 37.1663 34.6668 38.3036C33.3517 38.9867 32.1355 39.8538 30.7598 40.4214C26.4709 42.1758 22.7599 44.9946 18.6201 47.035C17.8213 47.4295 17.1174 48.1368 16.1916 48.2738C15.9394 48.3112 15.8206 48.2002 15.6437 48.0549C15.2688 47.4346 15.0083 47.0242 14.7746 46.3367C13.786 45.58 13.1547 44.5398 12.6269 43.4254C12.3835 42.9116 11.8819 42.0972 12.0014 41.5378C12.2658 41.1731 13.3123 40.9587 13.7599 40.764C14.4084 40.4823 15.0083 40.162 15.6269 39.8208L34.7639 29.329C35.7959 28.7639 36.7757 28.0771 37.7955 27.4973C38.7866 26.9177 39.8671 26.4517 40.8635 25.8917C42.7441 24.8341 44.6438 23.864 46.5929 22.9385C47.3325 22.5873 48.0701 22.0861 48.8306 21.7727C50.0351 21.276 51.2808 20.9432 52.4156 20.271C52.734 20.0825 53.1653 19.8728 53.5078 19.7375ZM12.999 42.2932C13.3579 43.799 14.1915 45.1468 15.2879 46.1914C15.5126 46.4058 15.6897 46.6893 15.9119 46.9094C16.0247 47.1498 16.0135 47.2316 16.198 47.3604C16.4061 47.33 17.2415 46.5073 17.5972 46.3132C22.1425 43.8243 26.3722 40.9098 31.1992 38.9556C32.1424 38.5732 33.2914 37.7486 34.2465 37.2824C37.7525 35.5711 41.2124 33.9436 44.4516 31.7534C45.8743 30.7907 47.8386 30.079 49.2886 29.0937C50.9517 28.1622 52.6978 27.3356 54.3628 26.3985C54.756 26.1884 55.84 25.8421 56.0652 25.6714C56.1451 24.9758 54.2118 20.8406 53.7272 20.5405C51.7096 21.9519 50.7411 22.0496 48.7875 23.0817L38.66 28.5092L21.8688 37.7632C19.2511 39.1954 15.7337 41.4515 12.999 42.2932Z" fill="#242424"/>
<path d="M55.4036 14.6491C55.6104 14.6567 55.6878 14.7507 55.8578 14.8808L55.9282 14.9356C56.1952 14.413 55.807 14.3373 55.9371 13.8387C56.2034 14.4948 56.5168 15.4388 56.714 16.1297C56.1793 15.6372 55.8432 15.2323 55.4036 14.6491Z" fill="#242424"/>
</svg>
