<svg width="76" height="85" viewBox="0 0 76 85" fill="none" xmlns="http://www.w3.org/2000/svg">
<path d="M16.6365 1.27734L8.10547 6.39595L11.9444 12.3677L8.95857 25.1642L18.3427 44.3589L32.8454 38.8138L44.3623 31.989L37.964 20.4721L31.5657 8.95525L21.3285 7.6756L16.6365 1.27734Z" fill="#469BF1"/>
<path d="M39.6699 50.7607C36.2575 52.4669 27.4421 54.5997 23.4609 55.4528L33.6981 78.913L69.1018 60.9979L51.6133 42.6562C49.054 44.6468 43.0823 49.0545 39.6699 50.7607Z" fill="#469BF1"/>
<path d="M69.6768 61.5321C69.5203 61.9783 69.3032 62.1979 68.8702 62.4015C67.3865 63.0994 66.2835 64.3679 64.8804 65.197C64.0789 65.6709 63.2229 66.0643 62.4086 66.5173C61.4389 67.0462 60.4967 67.6421 59.5101 68.1385C58.1662 68.8382 56.6479 69.3606 55.339 70.1246C53.5134 71.1897 51.5458 72.0224 49.8019 73.2097C48.0973 74.3699 46.1865 75.0479 44.3404 75.934C43.4163 76.3779 42.5231 76.9275 41.5691 77.3119C40.6597 77.6733 39.6705 77.9 38.7459 78.2249C38.1024 78.4546 37.3655 78.9959 36.6414 79.2441C36.1932 79.3973 35.0768 79.9042 34.6494 80.1779C34.5648 80.2322 34.5856 80.7182 34.4399 81.011C34.361 81.0422 34.3047 81.0856 34.2391 81.0514C33.6111 80.7225 32.7287 79.2838 32.3974 78.7109C32.0076 78.0364 31.7864 77.0828 31.5142 76.3429C31.1065 75.2356 30.6641 74.2395 30.2624 73.1419C30.1298 72.7385 29.7404 72.236 29.6168 71.8518C29.0304 70.0292 28.1305 68.3646 27.3606 66.6226C26.6418 64.9954 25.8698 63.3709 25.2381 61.7099C25.047 61.207 24.6429 60.6709 24.4411 60.1634C24.095 59.2611 23.7543 58.3281 23.3631 57.4446C21.7105 53.7147 20.2652 49.8818 18.3707 46.266C18.1517 45.8478 17.92 44.9369 17.5916 44.6623C17.283 44.7099 16.9742 44.7528 16.6641 44.7891C16.8011 44.6604 17.3201 44.5065 17.5321 44.431C16.6521 42.6975 15.7425 40.9796 14.8034 39.278C12.689 35.5056 10.466 31.856 8.71404 27.8844C8.4626 27.3138 7.34666 25.4626 7.50908 25.0186C7.77314 25.2437 8.91957 27.3043 9.14681 27.7693C11.8779 33.3618 15.9941 38.4491 18.793 43.948C20.1112 43.5921 21.7613 42.8417 23.0824 42.3741C29.2481 40.1937 35.0911 37.4651 40.4078 33.6088C40.9119 33.243 42.2605 32.3412 42.577 31.8677L42.7098 31.671L42.7777 31.5697L42.8962 31.558L42.9513 31.6871C42.926 31.7909 42.9297 31.7948 42.8769 31.9061C42.1671 33.4039 33.1182 38.9794 31.3481 39.6098C30.7995 39.8051 30.273 40.1002 29.7393 40.3382C28.8433 40.7295 27.9388 41.1025 27.0273 41.4566C24.3236 42.5098 21.7599 43.31 19.0259 44.211C19.0407 44.3977 21.5701 49.1375 21.8657 49.6272C22.7548 51.1007 23.6927 53.8407 24.596 55.1362C25.3878 54.197 28.5406 53.9354 29.7384 53.6314C30.7371 53.398 31.7405 53.1254 32.7185 52.8194C36.4966 51.6363 39.9719 49.6606 43.6082 48.1121C44.7832 47.6115 50.2139 44.4913 50.7283 43.4793L50.5987 43.4146L50.6138 43.3466C50.8349 43.1817 50.7204 43.2049 50.957 43.2289L51.0301 43.3543C51.0053 44.8907 45.2203 48.131 43.7876 48.8546C42.9623 49.3773 41.4872 49.9412 40.5856 50.4287C37.1879 52.2693 33.7007 53.865 29.9216 54.7494C28.7874 55.0686 27.4422 55.0916 26.328 55.4212C25.4696 55.6752 25.3829 55.4453 24.8228 55.5398C24.8865 55.9914 26.8221 59.7565 27.1049 60.3074C28.0311 62.1044 28.9309 63.9146 29.803 65.7384C30.0697 66.287 30.7424 67.4456 30.8985 67.9225C31.9018 70.9883 34.56 75.4294 34.6308 78.6501L34.6324 78.7568C34.9011 78.8594 37.7729 77.1699 38.2848 77.0033C38.8614 76.8152 39.6277 76.5464 40.2056 76.3814C41.3249 76.0628 42.1749 75.3964 43.2152 74.8702C44.5896 74.1752 46.0092 73.5636 47.3697 72.8476C48.3188 72.3485 49.2922 71.5715 50.2462 71.0987C52.0978 70.1805 53.9158 69.1849 55.7739 68.2848C56.8459 67.7654 57.994 67.3343 59.0654 66.8073C59.9691 66.3625 60.8319 65.8264 61.7275 65.3591C62.4677 64.9734 63.2587 64.6739 63.9923 64.2673C65.1336 63.635 66.1799 62.728 67.2997 62.0641C67.6687 61.8454 68.5469 61.6666 68.7395 61.2869C68.3148 59.8381 64.7562 57.8497 64.6509 57.5475L64.8083 57.4119C64.6264 57.0931 60.6707 54.192 59.9217 53.3941C58.3957 51.6241 56.281 49.6623 54.9243 47.7774C49.3126 39.9809 44.0218 31.6277 39.1555 23.3561C36.6242 18.7131 34.439 13.7758 31.9083 9.14877C31.4403 8.2936 21.8499 9.5645 21.273 8.58109L21.3415 8.48109C21.5144 8.4071 21.6901 8.32004 21.8773 8.29443C21.9472 8.285 22.0178 8.28205 22.0856 8.26635C22.2954 8.2183 22.5024 8.17719 22.7166 8.15329C23.5789 8.05693 24.5077 8.1457 25.3793 8.15802C27.2323 8.1842 29.201 8.11787 31.0345 8.3579C31.3977 8.40543 31.8523 8.4766 32.1492 8.70018C33.2326 9.51641 39.1176 21.2655 40.4645 23.557C42.9746 27.7563 45.5671 31.906 48.2407 36.0028C50.6777 39.8139 53.1439 43.7722 55.987 47.2947C57.5828 49.2713 59.6067 51.3932 61.4509 53.1598C61.9474 53.5805 62.4137 54.094 62.8934 54.5227C64.4265 55.8911 65.2952 57.6325 67.0664 58.7243C67.8121 59.1843 69.5824 60.6234 69.6768 61.5321Z" fill="#242424"/>
<path d="M64.3584 58.2596C64.2248 58.4471 62.8844 58.9662 62.4598 59.3008C61.2615 60.3538 59.7134 60.8896 58.4299 61.6967C56.42 62.9607 54.641 63.9778 52.4598 64.938C51.0634 65.5535 49.7522 66.7036 48.2081 67.1292C47.5654 67.3061 46.7942 67.7198 46.1626 67.9577C44.8972 68.5308 43.7304 69.3546 42.4567 69.9143C41.4672 70.3492 40.3404 70.5835 39.3413 71.0104C37.6889 71.8845 36.8701 73.0122 34.7626 73.0301C35.3777 72.4897 36.396 71.934 37.0934 71.4518C37.7993 70.9636 38.5612 70.3184 39.3097 69.9322C39.9262 69.6147 40.8824 69.4171 41.511 69.0744C42.883 68.3262 44.0905 67.5785 45.5381 66.9616C46.7225 66.3874 48.2225 66.0337 49.3764 65.4584C50.7875 64.7554 51.8427 63.9586 53.3948 63.4504C54.8184 62.984 56.3103 61.9048 57.6611 61.2462C58.4875 60.8432 59.3372 60.495 60.1712 60.1075C60.9487 59.7154 61.6802 59.1818 62.4503 58.7687C63.0365 58.4584 63.7009 58.0694 64.3584 58.2596Z" fill="#242424"/>
<path d="M20.6125 6.46767C20.5879 6.58686 20.5626 6.64825 20.5238 6.76354C20.0462 7.22568 17.4321 8.92455 16.7646 9.18405C15.2393 9.77685 13.576 10.5079 12.088 11.3049C11.8702 11.4215 11.2622 11.5221 10.977 11.6235C10.7193 11.9828 11.0544 11.6553 10.9829 12.0885C10.7876 11.9687 10.1812 11.6452 10.0678 11.5142C10.1805 11.4368 10.2576 11.4382 10.1871 11.3234C9.37419 9.94437 8.43505 8.52859 7.87728 7.02265C7.15174 5.06188 8.34722 4.85127 9.54804 3.9993C11.2032 2.82421 12.469 1.8468 14.4885 1.31918C15.5454 1.04341 16.0435 0.812888 17.1638 0.952515C18.3485 1.701 18.8692 3.09752 19.5783 4.30865C19.8013 4.85175 20.1077 5.33849 20.3403 5.91582C19.6536 5.08061 18.0242 1.60912 16.8089 1.67345C15.5452 1.74053 13.3524 2.62609 12.2418 3.27931C11.6207 3.64451 10.863 4.22645 10.2279 4.61862C9.66778 5.00649 8.33266 5.27962 8.39006 6.14745C8.47043 7.37937 9.32242 8.52346 9.84789 9.61608C9.99709 9.92581 10.5561 11.069 10.7557 11.2719C11.764 11.2556 13.1508 10.0713 14.0915 9.66568C15.0191 9.26606 16.0311 9.00665 16.9303 8.55284C18.1011 7.96154 19.3785 6.89592 20.6125 6.46767Z" fill="#242424"/>
<path d="M31.1128 10.3437C30.2748 11.0518 29.7685 12.7824 28.8186 13.6903C26.3998 16.0023 23.3859 17.9182 20.5932 19.7639C19.6215 20.4065 18.1564 20.8862 17.0907 21.3858C14.8342 22.4437 12.1575 23.752 9.63313 23.8397C9.99919 23.236 12.7067 22.5627 13.4238 22.2306C15.4972 21.2707 17.6414 20.3906 19.7005 19.4088C21.1295 18.6949 22.4317 17.6758 23.7531 16.7965C25.983 15.3117 28.431 14.0526 29.8191 11.6535C30.1197 11.1344 30.5313 10.5479 31.1128 10.3437Z" fill="#242424"/>
<path d="M11.4836 13.4254C10.4524 16.5152 10.3822 22.3379 8.38108 24.4745C8.18661 24.5225 8.28358 24.527 8.08925 24.4176C7.78947 23.4535 8.23869 22.2554 8.67649 21.3914C9.52122 19.7242 10.2539 14.4888 11.4836 13.4254Z" fill="#242424"/>
<path d="M21.6213 7.41521C21.3968 8.91386 17.5509 9.70033 16.4 10.3589C15.9343 10.6254 15.2506 10.9449 14.7512 11.2075C13.6314 11.7972 12.6015 12.8275 11.2728 12.3655C11.5172 11.8313 12.181 11.8799 12.6134 11.573C14.8328 9.9981 17.3356 9.19516 19.9011 8.39858C20.4613 8.22449 20.957 7.36563 21.6213 7.41521Z" fill="#242424"/>
</svg>
